<?xml version="1.0" standalone="no"?>
<!DOCTYPE svg PUBLIC "-//W3C//DTD SVG 20010904//EN"
 "http://www.w3.org/TR/2001/REC-SVG-20010904/DTD/svg10.dtd">
<svg version="1.0" xmlns="http://www.w3.org/2000/svg"
 width="700.000000pt" height="700.000000pt" viewBox="0 0 700.000000 700.000000"
 preserveAspectRatio="xMidYMid meet">
<metadata>
Created by potrace 1.14, written by Peter Selinger 2001-2017
</metadata>
<g transform="translate(0.000000,700.000000) scale(0.100000,-0.100000)"
fill="#000000" stroke="none">
<path d="M3278 6995 c-1 -1 -41 -6 -88 -9 -47 -4 -94 -9 -105 -11 -11 -2 -42
-7 -70 -10 -27 -3 -72 -10 -100 -15 -27 -5 -63 -12 -80 -15 -16 -3 -43 -8 -60
-11 -54 -9 -220 -55 -227 -62 -6 -6 231 -617 317 -817 19 -45 665 -1652 687
-1710 10 -27 25 -63 32 -80 20 -44 214 -529 243 -605 79 -210 -28 -424 -239
-479 -135 -34 -304 35 -378 154 -18 29 -131 306 -480 1180 -94 237 -178 444
-185 460 -14 30 -251 622 -397 990 -44 110 -86 214 -93 230 -7 17 -48 117 -90
223 -42 105 -80 192 -84 192 -11 0 -204 -111 -291 -168 -471 -308 -860 -723
-1137 -1212 -184 -326 -325 -707 -389 -1055 -9 -49 -17 -97 -19 -105 -2 -9 -6
-43 -10 -75 -4 -33 -9 -69 -11 -80 -26 -138 -25 -661 1 -816 2 -13 6 -46 9
-74 9 -78 22 -152 51 -285 21 -96 91 -339 114 -395 5 -11 25 -65 46 -120 63
-166 249 -531 312 -610 4 -6 34 -49 65 -95 170 -255 433 -535 708 -755 92 -74
370 -265 386 -265 4 0 15 -6 23 -14 26 -22 260 -140 391 -196 268 -115 597
-207 879 -246 25 -3 57 -8 71 -10 163 -25 682 -25 842 1 13 2 46 7 73 10 71
10 87 13 115 18 14 3 43 8 65 12 22 4 76 16 120 27 44 10 87 21 96 23 25 5
157 45 219 65 178 57 568 235 660 300 15 11 33 20 39 20 6 0 11 5 11 10 0 6 5
10 10 10 15 0 220 141 330 227 152 118 324 280 450 422 36 41 70 79 76 85 6 6
48 61 94 121 150 197 277 405 383 628 26 53 47 99 47 102 0 2 11 28 24 57 57
127 151 421 182 573 17 81 54 301 59 350 4 33 9 71 11 85 9 46 11 524 4 605
-15 153 -21 210 -25 225 -2 8 -7 35 -10 60 -17 129 -80 384 -136 552 -348
1036 -1168 1857 -2204 2206 -168 57 -420 119 -555 137 -19 3 -46 7 -60 10 -13
2 -52 7 -86 11 -33 3 -74 8 -90 10 -33 5 -540 14 -546 9z"/>
</g>
</svg>
