<?xml version="1.0" encoding="UTF-8" standalone="no"?>
<!-- Created with Inkscape (http://www.inkscape.org/) -->

<svg
   width="100mm"
   height="100mm"
   viewBox="0 0 100 100"
   version="1.1"
   id="svg5"
   inkscape:version="1.1.1 (c3084ef, 2021-09-22)"
   sodipodi:docname="ver05_logo_only.svg"
   inkscape:export-filename="/Users/miha/Dropbox/Webpage_mpavsic.github.io/1_images/_logo/ver_05-epcam_stylized/ver_05-epcam_stylizedlogo.png"
   inkscape:export-xdpi="254"
   inkscape:export-ydpi="254"
   xmlns:inkscape="http://www.inkscape.org/namespaces/inkscape"
   xmlns:sodipodi="http://sodipodi.sourceforge.net/DTD/sodipodi-0.dtd"
   xmlns="http://www.w3.org/2000/svg"
   xmlns:svg="http://www.w3.org/2000/svg">
  <sodipodi:namedview
     id="namedview7"
     pagecolor="#ffffff"
     bordercolor="#666666"
     borderopacity="1.0"
     inkscape:pageshadow="2"
     inkscape:pageopacity="0.0"
     inkscape:pagecheckerboard="0"
     inkscape:document-units="mm"
     showgrid="false"
     inkscape:zoom="0.63796465"
     inkscape:cx="180.26077"
     inkscape:cy="518.83752"
     inkscape:window-width="1469"
     inkscape:window-height="945"
     inkscape:window-x="298"
     inkscape:window-y="104"
     inkscape:window-maximized="0"
     inkscape:current-layer="layer1"
     inkscape:snap-global="false" />
  <defs
     id="defs2">
    <inkscape:path-effect
       effect="spiro"
       id="path-effect4646"
       is_visible="true"
       lpeversion="1" />
    <inkscape:path-effect
       effect="spiro"
       id="path-effect4642"
       is_visible="true"
       lpeversion="1" />
    <inkscape:path-effect
       effect="spiro"
       id="path-effect4027"
       is_visible="true"
       lpeversion="1" />
    <inkscape:path-effect
       effect="spiro"
       id="path-effect3895"
       is_visible="true"
       lpeversion="1" />
    <inkscape:path-effect
       effect="spiro"
       id="path-effect3451"
       is_visible="true"
       lpeversion="1" />
    <inkscape:path-effect
       effect="spiro"
       id="path-effect1390"
       is_visible="true"
       lpeversion="1" />
    <inkscape:path-effect
       effect="spiro"
       id="path-effect1384"
       is_visible="true"
       lpeversion="1" />
    <inkscape:path-effect
       effect="spiro"
       id="path-effect1121"
       is_visible="true"
       lpeversion="1" />
    <inkscape:path-effect
       effect="spiro"
       id="path-effect1117"
       is_visible="true"
       lpeversion="1" />
    <inkscape:path-effect
       effect="spiro"
       id="path-effect1080"
       is_visible="true"
       lpeversion="1" />
    <inkscape:path-effect
       effect="spiro"
       id="path-effect1584"
       is_visible="true"
       lpeversion="1" />
    <inkscape:path-effect
       effect="spiro"
       id="path-effect1467"
       is_visible="true"
       lpeversion="1" />
    <inkscape:path-effect
       effect="spiro"
       id="path-effect1350"
       is_visible="true"
       lpeversion="1" />
    <inkscape:path-effect
       effect="spiro"
       id="path-effect1264"
       is_visible="true"
       lpeversion="1" />
    <inkscape:path-effect
       effect="fill_between_many"
       method="originald"
       linkedpaths="#path2390,0,1"
       id="path-effect3006"
       is_visible="true"
       lpeversion="0"
       join="true"
       close="true"
       autoreverse="true"
       applied="false" />
    <inkscape:path-effect
       effect="fill_between_many"
       method="originald"
       linkedpaths="#path1692,0,1"
       id="path-effect2998"
       is_visible="true"
       lpeversion="0"
       join="true"
       close="true"
       autoreverse="true"
       applied="false" />
    <inkscape:path-effect
       effect="fill_between_many"
       method="originald"
       linkedpaths="#path2390,0,1"
       id="path-effect2900"
       is_visible="true"
       lpeversion="0"
       join="true"
       close="true"
       autoreverse="true"
       applied="false" />
    <inkscape:path-effect
       effect="fill_between_many"
       method="originald"
       linkedpaths="#path1692,0,1"
       id="path-effect2892"
       is_visible="true"
       lpeversion="0"
       join="true"
       close="true"
       autoreverse="true"
       applied="false" />
    <inkscape:path-effect
       effect="fill_between_many"
       method="originald"
       linkedpaths="#path1692,0,1"
       id="path-effect1732"
       is_visible="true"
       lpeversion="0"
       join="true"
       close="true"
       autoreverse="true"
       applied="false" />
    <inkscape:path-effect
       effect="fill_between_many"
       method="originald"
       linkedpaths="#path2390,0,1"
       id="path-effect2412"
       is_visible="true"
       lpeversion="0"
       join="true"
       close="true"
       autoreverse="true"
       applied="false" />
    <inkscape:path-effect
       effect="fill_between_many"
       method="originald"
       linkedpaths="#path2390,0,1"
       id="path-effect2496"
       is_visible="true"
       lpeversion="0"
       join="true"
       close="true"
       autoreverse="true"
       applied="false" />
    <inkscape:path-effect
       effect="fill_between_many"
       method="originald"
       linkedpaths="#path1547,0,1"
       id="path-effect1726"
       is_visible="true"
       lpeversion="0"
       join="true"
       close="true"
       autoreverse="true"
       applied="false" />
  </defs>
  <g
     inkscape:label="Layer 1"
     inkscape:groupmode="layer"
     id="layer1">
    <path
       id="path2390"
       style="fill:none;stroke-width:0.999997"
       d="m -40.881545,203.66051 c -0.230313,0.0101 -0.453935,0.043 -0.666896,0.10061 -1.264933,0.34229 -2.444111,1.45469 -2.778551,2.62079 -0.152636,0.53224 -0.191937,2.03725 -0.07052,2.70682 l 0.09848,0.54137 -0.354425,-0.20914 c -0.513243,-0.30338 -3.089768,-2.14596 -3.877383,-2.77277 -1.158029,-0.92158 -1.510115,-1.0492 -2.735386,-0.99062 -1.006795,0.0482 -1.128896,0.0855 -2.053283,0.62465 -0.540521,0.31527 -1.345188,0.69511 -1.788228,0.84412 -0.702715,0.23633 -0.94012,0.25829 -1.859054,0.17295 -0.579365,-0.0538 -1.58297,-0.10187 -2.230498,-0.10669 -1.153085,-0.009 -1.203053,0.003 -2.416828,0.5754 -0.681609,0.32119 -1.601733,0.66837 -2.044772,0.77146 -0.443046,0.1031 -1.129688,0.30186 -1.525907,0.44197 -1.029798,0.36413 -2.738277,0.44833 -4.033625,0.19879 -0.668416,-0.12876 -1.697906,-0.1994 -2.901045,-0.1994 h -1.864827 l -0.631034,-0.47509 c -1.166692,-0.87841 -3.176358,-1.98911 -3.756403,-2.07609 -2.188652,-0.32821 -3.822265,0.92546 -4.761009,3.65398 -0.126853,0.3687 -0.362052,0.84317 -0.522821,1.05414 -0.16077,0.21097 -0.453676,0.69021 -0.650792,1.06509 -0.351405,0.66835 -0.358719,0.72251 -0.37813,2.78828 l -0.01977,2.10678 -0.661735,1.85906 -0.662034,1.85904 -0.93044,0.0757 c -1.632116,0.13281 -2.981598,1.06054 -3.407454,2.34267 -0.119002,0.35827 -0.401714,0.85655 -0.628292,1.10735 -0.658939,0.72936 -1.886996,2.48787 -2.251472,3.22416 -0.277901,0.56139 -0.343576,0.88341 -0.383604,1.88001 l -0.04832,1.2028 0.757786,1.09488 c 0.416672,0.60228 0.757479,1.15372 0.757479,1.22529 0,0.0716 -0.246935,0.30447 -0.548962,0.51735 -0.686934,0.4842 -1.504501,1.51767 -2.24782,2.84208 -0.315358,0.56187 -0.637593,1.07247 -0.716142,1.13439 -0.07855,0.0619 -0.491642,0.14264 -0.917674,0.17934 -1.180353,0.10163 -2.541051,0.96369 -3.239663,2.05238 -0.771191,1.20179 -0.912121,1.83004 -0.993061,4.42787 l -0.0735,2.3621 -1.12862,2.34692 c -2.2213,4.61956 -2.09342,4.28402 -2.09342,5.50573 0,1.06294 0.0107,1.10295 0.49334,1.81437 0.27143,0.40013 0.80589,1.03429 1.1876,1.40918 0.3817,0.37488 0.89839,0.95071 1.14837,1.2797 0.43489,0.57233 0.45473,0.64063 0.45473,1.58091 0,0.97549 -0.005,0.99167 -0.71279,2.17518 -0.39889,0.66741 -0.9581,1.4082 -1.27027,1.68276 -0.54633,0.4805 -0.88056,0.90655 -1.86422,2.377 -0.6542,0.97796 -0.73654,1.3435 -0.73742,3.2649 -5.3e-4,1.59153 -0.0137,1.67185 -0.43375,2.68675 -0.60641,1.46489 -0.80613,2.32397 -0.80613,3.46642 0,0.94759 0.0206,1.01967 0.51005,1.7709 0.84742,1.30066 1.80414,1.97349 2.99924,2.10921 0.40759,0.0463 0.97095,0.25178 1.54201,0.56265 1.10379,0.60088 1.897436,0.7024 3.314135,0.42403 0.54514,-0.10712 1.308721,-0.23117 1.697035,-0.2757 l 0.706113,-0.0809 1.420127,1.45752 1.420431,1.45751 0.146508,1.00309 c 0.198158,1.35519 0.942497,3.55999 1.766346,5.23247 0.674779,1.36985 0.679153,1.38708 0.766902,2.85727 l 0.08846,1.47879 -0.448653,0.86082 c -0.504362,0.96764 -0.870246,2.65624 -0.748974,3.45671 0.08982,0.59283 1.244641,2.25449 2.017118,2.90256 0.522758,0.43856 0.769677,0.95861 0.77268,1.62712 0.0027,0.58695 0.255434,1.22178 0.808547,2.02958 0.443816,0.64817 0.554953,0.91613 0.555952,1.342 0.0011,0.58053 0.386533,1.51415 0.982721,2.38066 0.409985,0.5959 1.596137,1.45484 2.330504,1.68762 0.28767,0.0912 0.802812,0.47852 1.349605,1.01494 0.788552,0.7736 0.892804,0.9314 0.962354,1.45569 0.0832,0.6272 0.692776,1.62491 1.554481,2.54451 0.255476,0.27263 0.596065,0.71857 0.756872,0.99122 0.480948,0.81544 1.720672,2.39451 2.077297,2.64571 0.643674,0.45338 1.345683,0.74415 2.136572,0.88515 0.549302,0.0979 1.205286,0.36217 2.1001,0.84623 l 1.301273,0.70399 1.424991,-0.0262 c 0.783848,-0.0145 1.617297,-0.0424 1.85206,-0.062 0.404456,-0.0338 0.434811,-0.008 0.57936,0.48605 0.231743,0.79279 0.807303,1.54548 2.61836,3.42416 1.751037,1.81642 2.174315,2.37809 2.482179,3.29346 0.371736,1.10531 1.464154,2.44802 2.374881,2.91899 0.198497,0.10263 0.866594,0.27362 1.484569,0.38026 1.552513,0.26791 2.255501,0.12136 3.625697,-0.75597 l 1.031658,-0.66051 0.929528,0.50398 c 1.160255,0.62916 1.457679,0.89482 1.745977,1.55934 0.29052,0.66963 1.096022,1.85148 1.555995,2.28278 0.532597,0.49938 2.039873,1.21594 2.729609,1.29763 0.445389,0.0527 0.859802,-0.004 1.533809,-0.20943 0.507971,-0.1549 1.264137,-0.3053 1.680325,-0.33406 0.731205,-0.0505 0.806458,-0.026 2.230801,0.72525 1.466752,0.7737 1.47927,0.77771 2.527475,0.78453 0.944649,0.006 1.122826,-0.0317 1.72865,-0.36506 0.946376,-0.52083 1.405266,-1.02271 1.770598,-1.93687 0.400076,-1.0011 0.651147,-1.08455 0.761433,-0.25319 0.156538,1.18005 1.754333,2.98799 2.972173,3.36337 h 5.32e-4 c 0.213704,0.0658 0.841012,0.10428 1.39429,0.0851 0.960935,-0.0333 1.0499,-0.0619 1.983069,-0.63802 0.53729,-0.33175 1.347877,-0.98616 1.801298,-1.45417 0.942841,-0.97315 1.389635,-1.13846 2.094019,-0.77421 0.532718,0.27549 1.766186,0.37439 2.429596,0.19485 0.764431,-0.20689 1.951363,-1.05478 2.475492,-1.76878 0.618177,-0.84212 1.023872,-0.99773 2.847548,-1.09214 l 1.500372,-0.0778 0.919193,-0.57267 c 1.401041,-0.87324 3.007479,-2.36378 3.708376,-3.4406 0.332749,-0.5112 0.743941,-1.13614 0.913724,-1.38881 0.3970054,-0.59079 1.4938982,-1.23334 1.9265311,-1.12862 0.9386531,0.22719 1.5836824,0.65198 2.5213948,1.66086 1.3278553,1.42861 3.0723766,2.73276 3.9862023,2.98009 0.81007773,0.21922 2.05200708,0.0719 2.7472334,-0.32586 0.3304795,-0.18907 1.0748187,-0.58635 1.6541837,-0.88302 2.1480485,-1.09996 2.5960903,-2.18221 2.3022326,-5.56197 -0.082636,-0.95026 -0.047996,-1.38838 0.2340507,-2.9591 0.3296663,-1.83571 0.7060641,-2.95852 1.1012725,-3.28495 0.1406462,-0.11616 0.3770037,-0.14834 0.7325552,-0.10001 0.7723131,0.10505 2.2855263,-0.11959 2.7530111,-0.40853 0.3018516,-0.18655 0.6189846,-0.25016 1.2565936,-0.25016 1.123533,-0.002 1.574801,-0.13916 2.519875,-0.77267 0.61318,-0.41104 0.878134,-0.69236 1.198839,-1.27148 0.419728,-0.75799 0.914023,-2.54274 0.914023,-3.30077 0,-0.72204 0.669835,-1.57366 1.740811,-2.21378 1.462367,-0.87404 1.691682,-1.07591 2.045687,-1.79947 0.40957,-0.83714 0.516619,-1.94652 0.310957,-3.22142 -0.140312,-0.8698 -0.133615,-0.95771 0.105778,-1.34506 0.140896,-0.22796 0.610033,-0.64328 1.042295,-0.92283 0.432276,-0.27956 0.936973,-0.72629 1.121635,-0.99276 0.734585,-1.06003 0.771218,-1.07512 2.601033,-1.07512 h 1.635639 l 0.735898,-0.43376 c 0.404675,-0.23856 1.099965,-0.80427 1.545057,-1.2569 1.137299,-1.15653 1.669949,-1.42414 3.007435,-1.51101 0.90885,-0.059 1.197632,-0.0284 1.797041,0.19029 0.512488,0.18697 1.028836,0.26406 1.829262,0.27265 0.993362,0.0106 1.187171,-0.0259 1.770597,-0.33315 0.897009,-0.47231 1.593559,-1.13034 1.987938,-1.87759 0.319833,-0.60605 0.331399,-0.69726 0.333753,-2.67216 l 0.0021,-2.04477 0.5292,-1.13714 c 0.560475,-1.20452 0.727273,-2.02439 0.593344,-2.91746 -0.06209,-0.41403 -0.294729,-0.8296 -0.96053,-1.71588 -0.843829,-1.12325 -0.872611,-1.18435 -0.728,-1.54141 0.41487,-1.02427 0.515279,-1.52314 0.464461,-2.30406 -0.04598,-0.7062 -0.121682,-0.91766 -0.559295,-1.56207 -0.278417,-0.40998 -0.78718,-0.98076 -1.130448,-1.26815 l -0.624045,-0.52252 0.431028,-0.82739 c 0.498983,-0.95768 0.734745,-2.0518 0.631641,-2.93174 -0.05323,-0.45435 -0.219796,-0.83319 -0.632253,-1.43685 -0.308086,-0.4509 -0.560209,-0.87898 -0.560209,-0.95111 0,-0.19489 1.519901,-0.61327 2.766693,-0.76173 0.900139,-0.10719 1.221434,-0.20807 1.817106,-0.56993 0.398047,-0.24181 0.894282,-0.634 1.102787,-0.87148 0.467937,-0.53294 0.787627,-1.58976 0.803684,-2.65818 0.01052,-0.69928 -0.05733,-0.95962 -0.499717,-1.92409 -0.735292,-1.60306 -1.04998,-2.66488 -1.074217,-3.62389 -0.01951,-0.77126 0.02785,-0.93944 0.598511,-2.12836 0.611697,-1.27449 0.619484,-1.30635 0.619484,-2.48826 0,-1.15637 -0.01781,-1.2327 -0.518262,-2.24083 -0.574884,-1.15797 -1.907672,-2.79716 -2.62292,-3.22568 -0.249008,-0.14919 -0.815064,-0.36363 -1.25811,-0.47662 l -0.805511,-0.20548 -0.200007,-0.67481 c -0.10995,-0.37115 -0.263157,-1.00872 -0.34044,-1.41677 -0.170779,-0.90177 -0.712831,-1.74263 -1.959969,-3.04057 -0.562813,-0.58573 -1.01785,-1.19908 -1.224676,-1.65084 l -0.328891,-0.71887 0.137692,-3.43025 c 0.07575,-1.88659 0.137089,-3.63998 0.137089,-3.89654 -5.31e-4,-0.40925 0.08858,-0.55047 0.727693,-1.15051 0.403101,-0.37846 0.915042,-1.02786 1.146255,-1.45417 0.417234,-0.76941 0.417835,-0.77278 0.410659,-2.44357 -0.0064,-1.49464 -0.04018,-1.75377 -0.318557,-2.42899 -0.474516,-1.15078 -1.403539,-2.45942 -2.718664,-3.83027 -1.157582,-1.20661 -1.192173,-1.25934 -1.273008,-1.9472 -0.04571,-0.38885 -0.150346,-0.86264 -0.232536,-1.05264 -0.257102,-0.59432 -1.110961,-1.80479 -1.75479,-2.48765 l -0.617964,-0.65535 0.147726,-1.41587 c 0.08117,-0.77875 0.200883,-1.55594 0.265974,-1.72713 0.06508,-0.17119 0.454553,-0.57255 0.865691,-0.89183 1.291818,-1.00318 1.831457,-2.17508 1.708288,-3.70959 -0.0574,-0.71512 -0.128007,-0.88651 -0.666902,-1.61801 -0.843941,-1.14559 -1.652636,-1.62598 -2.995274,-1.77912 -0.78424,-0.0894 -1.324799,-0.25253 -2.349351,-0.70824 -1.267066,-0.56356 -1.384043,-0.59161 -2.446009,-0.59272 -0.925445,-0.001 -1.206137,0.047 -1.647795,0.28208 -0.731588,0.3894 -1.483129,1.09252 -1.770901,1.65661 -0.132253,0.25925 -0.371938,0.55741 -0.532549,0.66264 -0.305062,0.19989 -2.546429,0.67967 -3.174917,0.67967 -0.372071,0 -2.346136,-1.20177 -3.469764,-2.11226 -1.244491,-1.00841 -1.36334,-1.04672 -3.284046,-1.05902 -1.2899571,-0.008 -1.862237,-0.0623 -2.2308001,-0.21125 -0.6319752,-0.25539 -1.9939276,-0.26389 -3.5320799,-0.0216 -0.6475222,0.10201 -2.0135998,0.23662 -3.0360049,0.2991 -1.64293139,0.10039 -2.02476666,0.0846 -3.2843478,-0.13739 -1.031271,-0.18178 -1.6819398,-0.23023 -2.3545127,-0.17478 -0.5112026,0.0421 -1.9610689,0.11939 -3.2220321,0.17174 -2.1635631,0.0898 -2.3295789,0.11439 -2.9475545,0.43527 -0.922042,0.47878 -1.565376,1.16524 -1.825009,1.94691 -0.22856,0.68811 -0.311733,2.18056 -0.152893,2.74754 0.08032,0.28669 0.02216,0.40606 -0.403058,0.82709 -0.71939,0.71223 -1.008108,1.46634 -1.085157,2.83448 -0.03551,0.63048 -0.110142,1.14625 -0.165968,1.14625 -0.05583,0 -0.327078,-0.37946 -0.602757,-0.84351 l -0.501242,-0.8438 -0.0011,-1.72775 c -3.14e-4,-0.95028 -0.05558,-1.92487 -0.122501,-2.16575 -0.166791,-0.6004 -1.188309,-1.8359 -1.862088,-2.25207 -1.183993,-0.73133 -2.349968,-0.6248 -3.986202,0.36415 -0.634893,0.38373 -1.60041,0.87385 -2.145694,1.0891 -0.545284,0.21525 -1.170073,0.4838 -1.38821,0.59699 -0.721797,0.37453 -0.830801,0.30426 -1.266017,-0.81645 -0.568544,-1.46403 -1.536983,-2.78889 -2.379441,-3.25547 -0.602178,-0.33351 -0.7763,-0.36931 -1.785189,-0.36931 -1.089738,0 -1.139755,0.0128 -1.985502,0.51522 -0.477207,0.2835 -1.22052,0.83047 -1.651744,1.21524 -0.688429,0.61428 -0.838679,0.69488 -1.233192,0.66175 -0.404754,-0.034 -0.51125,-0.12805 -1.072692,-0.94991 -1.110532,-1.6256 -3.063367,-2.68139 -4.675598,-2.61106 z m 0.445922,0.38453 c 1.482273,0.0944 3.206883,1.22946 4.09897,2.69798 0.753593,1.24056 1.568311,1.19624 3.045125,-0.16565 0.377525,-0.34815 1.0374,-0.81989 1.466333,-1.04838 0.727533,-0.38754 0.845041,-0.41228 1.751144,-0.37114 0.842586,0.0383 1.042237,0.0938 1.506452,0.42008 0.294315,0.20685 0.74991,0.65275 1.012509,0.99093 0.43032,0.55417 0.63249,0.9375 1.45964,2.76577 0.226817,0.50134 0.272518,0.53542 0.642276,0.48028 0.641485,-0.0957 3.266532,-1.26958 4.417534,-1.97548 0.953748,-0.58492 1.146165,-0.65583 1.895526,-0.6982 1.277324,-0.0722 2.031916,0.37717 2.956064,1.76056 l 0.485428,0.72679 v 1.84901 c 0,1.74567 0.01812,1.88486 0.323725,2.49526 0.537959,1.07448 0.8908,1.472 1.268144,1.42834 0.328002,-0.0379 0.32939,-0.0423 0.395155,-1.33928 0.07351,-1.44975 0.315002,-2.09401 1.029836,-2.74724 l 0.391205,-0.35777 v -1.46116 c 0,-1.3803 0.02057,-1.5015 0.372965,-2.19098 0.310952,-0.60844 0.506296,-0.8133 1.173916,-1.23106 l 0.800946,-0.50094 2.1721365,-0.0894 c 1.194693,-0.0492 2.6892763,-0.12462 3.3211239,-0.16748 0.8474332,-0.0575 1.4486917,-0.0213 2.2925104,0.138 1.45525075,0.27463 3.4261209,0.24977 5.7257969,-0.0723 2.2759536,-0.31875 3.5869436,-0.31872 4.2965477,3.1e-4 0.476271,0.21411 0.7163916,0.23386 2.028668,0.16809 1.3692826,-0.0686 1.5308596,-0.0528 2.0192386,0.19636 0.292003,0.14897 0.737781,0.45601 0.990323,0.68241 0.777027,0.69661 3.386681,2.30405 3.740596,2.30405 0.590065,0 2.961612,-0.48122 3.343011,-0.67845 0.205392,-0.1062 0.58425,-0.51295 0.841986,-0.90368 0.307379,-0.46601 0.723886,-0.8808 1.210389,-1.20584 0.675725,-0.45147 0.82556,-0.49959 1.684878,-0.53923 0.90377,-0.0417 1.006997,-0.0164 2.474281,0.60489 1.142647,0.48384 1.737016,0.66441 2.34114,0.71097 1.301593,0.10031 2.263207,0.72859 3.152121,2.05967 0.271624,0.40677 0.321858,0.61968 0.320683,1.3633 -0.0016,1.12791 -0.354632,1.9184 -1.188506,2.66212 -0.334083,0.29797 -0.75963,0.67818 -0.945637,0.84472 -0.186001,0.16654 -0.393294,0.50813 -0.460809,0.7593 -0.190168,0.70752 -0.404951,2.87445 -0.318861,3.21748 0.04242,0.16905 0.369574,0.62079 0.726784,1.004 1.229029,1.31852 1.806321,2.30785 1.816494,3.11321 0.0089,0.71089 0.407758,1.385 1.308572,2.21044 0.992975,0.90988 1.883674,2.08525 2.503764,3.30441 0.425176,0.83592 0.443269,0.92609 0.494853,2.47853 l 0.0535,1.61132 -0.394544,0.74349 c -0.230309,0.43396 -0.725534,1.05496 -1.189112,1.49157 l -0.794265,0.74805 v 0.73651 c 0,0.40497 -0.06057,2.20564 -0.134656,4.00171 l -0.134656,3.2655 0.490298,1.02253 c 0.362721,0.75593 0.639788,1.14461 1.063572,1.49187 0.938844,0.7693 2.061494,2.4692 2.061494,3.12172 0,0.47901 0.37686,1.80381 0.581183,2.04296 0.09428,0.11036 0.426244,0.23542 0.737721,0.27813 0.860621,0.11795 1.732366,0.65624 2.338409,1.44383 0.292486,0.38011 0.629455,0.77232 0.748968,0.87147 0.119534,0.0991 0.459772,0.67789 0.755963,1.28638 0.494471,1.01581 0.538321,1.18541 0.538321,2.07062 0,0.89428 -0.0447,1.0618 -0.619478,2.31408 -0.557159,1.21389 -0.619789,1.43795 -0.619789,2.22289 0,1.01974 0.277083,2.01033 1.080905,3.86341 0.534728,1.23262 0.55634,1.32807 0.477223,2.10678 -0.11456,1.12749 -0.539746,2.00542 -1.20644,2.49099 -0.888195,0.64689 -1.230332,0.78041 -2.396461,0.93501 -0.613446,0.0813 -1.519612,0.27159 -2.013769,0.42281 -0.831801,0.25455 -0.898523,0.30023 -0.898523,0.61675 0,0.19681 0.176285,0.57321 0.415216,0.88666 0.753172,0.98806 0.859945,1.2981 0.795173,2.3074 -0.04699,0.7323 -0.147726,1.08881 -0.510963,1.80556 -0.635941,1.25482 -0.610917,1.43212 0.297578,2.09523 0.241672,0.17641 0.673965,0.66994 0.960536,1.09671 0.473204,0.70468 0.520993,0.84662 0.520993,1.54718 0,0.52338 -0.100751,1.03981 -0.313688,1.60555 -0.346857,0.92147 -0.324432,1.13032 0.184506,1.71315 0.18952,0.21705 0.574991,0.72449 0.85657,1.12771 0.471212,0.67472 0.511878,0.79676 0.511878,1.53167 0,0.67911 -0.08628,0.99598 -0.577228,2.11743 -0.451657,1.03169 -0.574571,1.45331 -0.564158,1.93809 0.06057,2.82714 0.03024,3.20289 -0.313694,3.88649 -0.382197,0.7596 -0.977842,1.31558 -1.920456,1.79249 -0.842713,0.42638 -1.951826,0.45162 -3.018373,0.069 -0.581741,-0.2087 -0.9848,-0.25844 -1.964226,-0.24227 -1.12786,0.0186 -1.296289,0.0542 -1.983069,0.41765 -0.435142,0.2303 -1.062828,0.72663 -1.493988,1.18151 -0.408965,0.43148 -1.097701,0.98329 -1.530775,1.2262 l -0.787573,0.44166 -1.319207,-0.0766 c -1.613023,-0.0938 -1.96883,0.0388 -2.767607,1.03227 -0.30139,0.37488 -0.868721,0.89431 -1.260543,1.15416 -1.140802,0.75652 -1.213775,0.94874 -1.117681,2.94086 0.07509,1.55677 0.06111,1.72258 -0.190891,2.29251 -0.373405,0.84442 -0.755309,1.21061 -2.0776,1.99158 -1.062551,0.62754 -1.162775,0.72231 -1.518007,1.4332 -0.231681,0.46361 -0.380566,0.95235 -0.380566,1.25021 0,1.08265 -0.671068,2.87959 -1.345347,3.60198 -0.180117,0.19298 -0.667513,0.5418 -1.083031,0.77483 -0.677639,0.38005 -0.853785,0.42342 -1.708282,0.42342 -0.780605,0 -1.067457,0.0584 -1.5891358,0.32281 -0.5539689,0.28072 -0.8139101,0.32665 -2.0010022,0.35412 -1.2960543,0.03 -1.3782755,0.0477 -1.6408053,0.35289 -0.4412329,0.51297 -0.7644199,1.55201 -1.1146403,3.58284 -0.2659579,1.54216 -0.3078844,2.05473 -0.225238,2.76122 0.1912578,1.63511 0.1159835,2.80709 -0.2285814,3.55976 -0.3558756,0.77732 -0.7291162,1.0945 -2.1383959,1.81678 -0.5452891,0.27947 -1.2415148,0.64795 -1.54718288,0.81889 -0.43911746,0.24559 -0.7300092,0.31065 -1.38608361,0.31065 -0.45670021,0 -0.97886281,-0.0564 -1.16054261,-0.12552 -0.6590562,-0.2506 -2.0075718,-1.32859 -3.3417948,-2.67186 -1.1857473,-1.19382 -1.4617139,-1.40754 -2.1195477,-1.64204 -0.9762477,-0.34798 -1.4339578,-0.34026 -2.0757821,0.0359 -0.6788236,0.39781 -1.0253074,0.78702 -1.7408114,1.95601 -0.685914,1.12068 -2.752899,3.08259 -4.047598,3.84183 -0.758568,0.44485 -0.840523,0.46476 -1.918935,0.46476 -1.782956,0 -2.281795,0.20331 -3.464295,1.41192 -0.560602,0.57299 -1.239676,1.13266 -1.562688,1.2879 -0.745699,0.35832 -1.847349,0.3678 -2.721098,0.0234 -0.987883,-0.38939 -1.335323,-0.26624 -2.594341,0.92011 -0.585993,0.55217 -1.423906,1.21314 -1.862094,1.46875 -0.729371,0.42543 -0.875609,0.46476 -1.730776,0.46476 -0.946397,0 -1.385675,-0.14765 -2.242659,-0.75322 -0.527563,-0.37281 -1.600074,-2.06129 -1.600074,-2.51897 0,-0.5358 -0.248211,-0.85162 -0.626778,-0.79821 -0.239254,0.0337 -0.397201,0.23785 -0.752614,0.97208 -0.50146,1.03594 -0.87494,1.43917 -1.768472,1.91043 -0.468729,0.24722 -0.786973,0.32038 -1.396113,0.32038 -0.718157,0 -0.924127,-0.0679 -2.294334,-0.75475 -1.934902,-0.96994 -2.314101,-1.01609 -4.05976,-0.49485 -1.25331,0.37423 -1.312675,0.38056 -1.920758,0.20152 -0.999816,-0.29437 -2.173216,-1.0494 -2.705595,-1.7408 -0.262205,-0.34052 -0.694694,-1.0459 -0.960833,-1.56756 -0.474342,-0.92975 -0.505702,-0.96117 -1.587611,-1.58031 -0.607041,-0.34738 -1.248658,-0.63164 -1.4259,-0.63164 -0.177368,0 -0.747224,0.27769 -1.267537,0.61735 -1.381949,0.90214 -1.936269,1.0122 -3.535423,0.70247 -0.860828,-0.16675 -1.732238,-0.60445 -2.171531,-1.09093 -0.506903,-0.56138 -1.160878,-1.61953 -1.284552,-2.07882 -0.21634,-0.80341 -1.095197,-1.99167 -2.524435,-3.41293 -1.937921,-1.92712 -2.403722,-2.56228 -2.615012,-3.56491 -0.08792,-0.4172 -0.474793,-0.53729 -1.137745,-0.35321 -0.26354,0.0732 -0.974883,0.13376 -1.580622,0.13376 -1.097977,0 -1.105743,-0.002 -2.54054,-0.7271 -0.941353,-0.47605 -1.709356,-0.77449 -2.220771,-0.86265 -1.252097,-0.21584 -1.986891,-0.71962 -2.977643,-2.04173 -0.469494,-0.62651 -0.947035,-1.32158 -1.061148,-1.54444 -0.114107,-0.22285 -0.543987,-0.77653 -0.955359,-1.23047 -0.823711,-0.90892 -1.226196,-1.59261 -1.226196,-2.08338 0,-0.17651 -0.07775,-0.4716 -0.172958,-0.65565 -0.285847,-0.55261 -1.587116,-1.70802 -2.121072,-1.88337 -0.646317,-0.21223 -1.37083,-0.66374 -1.961489,-1.22286 -0.656001,-0.62095 -1.321031,-1.9635 -1.321031,-2.66638 0,-0.45556 -0.107947,-0.70864 -0.632555,-1.48517 -0.571817,-0.84643 -0.6448,-1.0341 -0.762645,-1.95724 l -0.130403,-1.02071 -0.941381,-0.99945 c -1.234912,-1.31124 -1.746859,-2.09136 -1.745977,-2.65969 0.0016,-0.93934 0.262859,-1.9709 0.752312,-2.96914 l 0.509146,-1.03834 -0.123106,-1.56419 c -0.122638,-1.55544 -0.127571,-1.5724 -0.866909,-3.11657 -0.826034,-1.72523 -1.579137,-4.00322 -1.699171,-5.13944 -0.04321,-0.40897 -0.145951,-0.86897 -0.228273,-1.02194 -0.256948,-0.47748 -2.476843,-2.66359 -2.873694,-2.82992 -0.398631,-0.16707 -1.960239,-0.0522 -2.708326,0.1991 -0.197615,0.0664 -0.731104,0.12067 -1.185465,0.12067 -0.738584,0 -0.939034,-0.0592 -1.891884,-0.55777 -0.73762,-0.38596 -1.21598,-0.55747 -1.55356,-0.55747 -0.50915,0 -1.48933,-0.44394 -1.97517,-0.89457 -0.15026,-0.13937 -0.50305,-0.59457 -0.78393,-1.0116 l -0.51067,-0.7584 0.0444,-1.23926 c 0.0404,-1.13205 0.0942,-1.36434 0.62101,-2.68553 l 0.57662,-1.44627 -0.004,-1.74689 c -0.004,-1.66462 0.012,-1.77734 0.33405,-2.39555 0.18587,-0.35678 0.49688,-0.8305 0.69122,-1.05294 0.19433,-0.22244 0.4366,-0.56534 0.53832,-0.76204 0.10172,-0.19671 0.47073,-0.60779 0.8201,-0.91341 0.42521,-0.37197 0.89736,-1.00071 1.42833,-1.90191 0.79198,-1.3442 0.79335,-1.34801 0.79335,-2.31227 0,-1.24264 -0.19459,-1.62621 -1.55052,-3.05698 -1.53309,-1.61769 -1.79553,-2.07908 -1.79553,-3.15698 0,-0.9701 0.0728,-1.15702 2.01286,-5.15192 0.54616,-1.12464 1.06904,-2.32345 1.16175,-2.66426 0.10692,-0.39302 0.16892,-1.30397 0.16992,-2.49037 0.002,-1.95928 0.11087,-2.52505 0.71797,-3.71508 0.60515,-1.18617 2.253912,-2.28369 3.430857,-2.28369 0.812613,0 0.848119,-0.031 1.691268,-1.47757 0.820055,-1.4069 1.53338,-2.30839 2.176086,-2.75058 0.294958,-0.20293 0.568916,-0.50573 0.611581,-0.67572 0.07949,-0.31673 0.07796,-0.31966 -1.054765,-1.95602 l -0.50215,-0.72526 0.07295,-0.94777 c 0.04523,-0.58733 0.183146,-1.19576 0.362939,-1.60006 0.322246,-0.72468 1.620161,-2.59812 2.228669,-3.21717 0.216081,-0.21983 0.515764,-0.73768 0.666296,-1.15052 0.486439,-1.33411 1.767456,-2.22957 3.188902,-2.22957 1.011451,0 1.179241,-0.16523 1.636851,-1.61133 0.204902,-0.64753 0.508954,-1.53972 0.676017,-1.98277 0.285177,-0.75627 0.299847,-0.91346 0.238919,-2.57033 -0.07318,-1.99014 0.01504,-2.37985 0.780281,-3.45517 0.236661,-0.33256 0.578105,-0.99498 0.758999,-1.4721 0.688491,-1.81597 1.264157,-2.55065 2.470937,-3.15334 0.471041,-0.23526 0.707297,-0.27228 1.452343,-0.22767 0.840454,0.0503 0.964873,0.0992 2.252689,0.88454 0.749766,0.4572 1.634236,1.02475 1.965438,1.26114 l 0.602156,0.42981 h 2.023194 c 1.380747,0 2.311214,0.0622 2.929924,0.19606 1.163747,0.25176 2.746031,0.15099 4.04578,-0.25746 0.522678,-0.16425 1.223868,-0.35907 1.558126,-0.43315 0.334259,-0.0741 1.245189,-0.41758 2.024411,-0.76325 l 1.416779,-0.6286 1.259635,0.0772 c 0.692776,0.0424 1.568677,0.10899 1.946595,0.14772 0.965389,0.099 2.037986,-0.20665 3.553048,-1.01191 1.188724,-0.63179 1.319655,-0.67267 2.142956,-0.67267 0.979586,0 1.547146,0.22236 2.328378,0.9116 0.776623,0.68521 4.226679,3.05138 4.451572,3.05303 0.283301,0.002 0.387958,-0.4137 0.269009,-1.06814 -0.173623,-0.95525 0.03742,-2.51717 0.43072,-3.18829 0.326886,-0.55779 1.335742,-1.33271 2.066964,-1.58761 0.207878,-0.0725 0.72945,-0.10942 1.159022,-0.0821 z" />
    <g
       id="g2888"
       transform="translate(-120.83379,363.55373)">
      <path
         inkscape:original-d="M 24.710367,-68.663629"
         inkscape:path-effect="#path-effect2892"
         d="M 24.710367,-68.663629"
         id="path2884"
         style="fill:#ffcc00;stroke-width:1.01603" />
      <path
         id="path2886"
         style="fill:none;stroke:none;stroke-width:1"
         d="m 37.384242,-72.947842 c -0.345127,-2.7e-4 -0.73689,0.05247 -1.283748,0.145963 -2.740707,0.468546 -3.589027,0.927466 -4.628321,2.505017 l -0.547104,0.830629 -1.683837,-0.07981 c -1.487069,-0.07047 -1.807905,-0.04988 -2.746013,0.174842 -0.64665,0.154903 -1.435942,0.456115 -2.017245,0.769724 -0.525184,0.283331 -1.325817,0.63305 -1.779396,0.777074 -0.453579,0.144029 -0.982906,0.343236 -1.176114,0.443143 -0.193207,0.09992 -1.266726,1.048751 -2.385305,2.108078 -1.118576,1.059325 -2.270901,2.063008 -2.561195,2.23094 -0.290298,0.167931 -1.104108,0.470366 -1.808274,0.672066 -2.482039,0.710947 -3.414368,1.328118 -3.997209,2.645727 -0.350409,0.792163 -0.533115,2.104818 -0.392215,2.817422 0.08958,0.453084 0.08072,0.670392 -0.03728,0.897837 -0.332159,0.640236 -1.0961646,1.400379 -2.0135679,2.003592 -1.3794674,0.907027 -2.1868371,1.984136 -2.1868371,2.917181 0,0.253927 -0.1195781,0.482915 -0.3953635,0.758698 -0.2172668,0.217268 -1.0232385,1.39073 -1.7914715,2.607401 -1.0342076,1.6379 -1.4708537,2.23061 -1.6812125,2.283445 -0.1562611,0.03922 -0.9115204,-0.07003 -1.67858626,-0.242572 l -1.39453428,-0.313457 -0.93931546,0.241525 c -0.5164495,0.132966 -1.1650239,0.374401 -1.4417888,0.5366 -0.465492,0.272796 -1.1178943,1.030396 -1.4722417,1.709566 -0.2359026,0.452144 -0.3897757,1.858108 -0.3643849,3.327244 0.026245,1.518737 0.089411,1.706031 0.9891951,2.927681 0.4799221,0.651593 0.6645784,0.791609 1.8219253,1.381934 0.7083438,0.361302 1.74186892,0.817846 2.29657119,1.014398 1.41926221,0.502884 1.42341171,0.505003 1.42341171,0.684141 0,0.0887 -0.21195,0.48997 -0.471495,0.891534 -0.25954406,0.401569 -0.50315517,0.923968 -0.54132709,1.160887 -0.0381684,0.236911 -0.19620211,0.857764 -0.35073389,1.379834 -0.19900972,0.67234 -0.29627789,1.351552 -0.33393234,2.328073 -0.0507987,1.317545 -0.0723681,1.412351 -0.48199614,2.14484 -0.44297504,0.792111 -0.53250404,1.25145 -0.76867404,3.927371 l -0.081908,0.92514 -0.7849505,0.75082 c -0.4317862,0.413099 -0.925004,0.9904 -1.0963055,1.282703 -0.4803964,0.819737 -0.8652457,2.072142 -0.9540168,3.106201 -0.063251,0.736839 -0.1680425,1.108078 -0.4888219,1.72794 -0.3728491,0.72047 -0.4090145,0.879145 -0.4090145,1.810371 v 1.020698 l 0.5996077,0.895737 c 0.6997707,1.0462513 0.8140475,1.1361399 2.565922,2.013049 1.7236949,0.8627964 2.27407089,1.5621332 2.28764532,2.9072007 0.008636,0.855867 -0.68191532,2.2765174 -1.44493912,2.973883 -0.9204351,0.841226 -1.2338474,1.4978893 -1.3168269,2.75704093 -0.066853,1.0144498 -0.062828,1.03476033 0.3486336,1.72059397 0.461598,0.7693924 1.0496798,1.4287278 1.36198102,1.5278928 0.34521621,0.1095692 0.36047644,0.4123273 0.0593314,1.1687652 -0.17048165,0.428218 -0.32359972,1.1248216 -0.37278602,1.696961 -0.1008323,1.1729613 0.046137,1.5461408 1.11888262,2.8368504 0.75896865,0.9131816 1.26698798,1.222117 2.56697198,1.563078 0.7017681,0.184075 0.8162295,0.183425 1.8361019,-0.01209 l 1.087905,-0.208449 0.5145495,0.301904 c 0.2831476,0.165939 0.9314032,0.758938 1.4402131,1.317879 0.5088089,0.558941 1.3095845,1.310857 1.779396,1.670706 1.0960392,0.839499 1.3936532,1.300281 1.6444592,2.543877 0.402975,1.998114 1.116316,2.868368 3.237986,3.951004 2.485081,1.268082 3.389798,2.4091 3.401279,4.290187 0.0055,0.89852 -0.02494,1.014561 -0.528202,2.017245 -0.520689,1.037412 -0.533977,1.091791 -0.533977,2.191039 0,1.102011 0.01019,1.142307 0.44577,1.812474 0.509932,0.784551 2.8575,3.181326 3.381324,3.452201 0.681834,0.352585 2.70792,1.112579 3.351398,1.256967 0.734379,0.164791 2.18752,0.795038 4.805787,2.084985 2.153735,1.061076 2.632208,1.196625 3.553017,1.005468 0.575167,-0.119374 0.712827,-0.112251 0.961892,0.0509 0.159811,0.104722 0.290353,0.238229 0.290353,0.296651 0,0.171334 0.71255,0.560354 1.526323,0.83325 0.725709,0.243331 0.790257,0.24649 1.644456,0.0698 0.488919,-0.101096 0.928176,-0.184288 0.97607,-0.184288 0.04789,0 0.89897,0.803988 1.891233,1.786219 0.992263,0.982221 2.055221,1.945341 2.362202,2.140105 0.873354,0.554145 1.962228,0.846286 2.814796,0.755554 l 0.714595,-0.0761 0.216845,0.45626 c 0.423073,0.888208 1.045981,1.605823 1.609279,1.855006 0.865396,0.38277 1.56788,0.526956 2.28082,0.467823 0.43431,-0.03607 1.08786,0.03719 1.884932,0.210542 1.372071,0.298481 2.039504,0.276982 3.112498,-0.100282 l 0.685192,-0.241004 0.640036,0.292984 c 0.351888,0.161092 0.95142,0.351233 1.332054,0.42266 0.380634,0.07143 0.752621,0.145568 0.826954,0.164872 0.07433,0.01931 0.406132,0.426176 0.737172,0.904139 0.331038,0.477963 0.723824,0.946691 0.873157,1.0417 0.149335,0.095 1.045786,0.44353 1.992043,0.774442 1.705079,0.59628 1.724216,0.606705 2.108602,1.178743 0.334512,0.497806 0.375335,0.636159 0.296655,1.005468 -0.05017,0.235506 -0.09136,1.071276 -0.09136,1.857108 v 1.428667 l 0.594883,0.877356 c 0.85263,1.257496 1.295345,1.453397 4.035538,1.784117 0.589089,0.07112 1.603735,0.258276 2.254567,0.416371 1.839778,0.446913 3.117335,0.203125 4.107472,-0.782855 0.788549,-0.785253 0.958273,-1.181303 1.061652,-2.482966 0.114918,-1.446975 0.411148,-2.735338 0.739271,-3.216461 0.187179,-0.274451 0.763388,-0.645111 2.086025,-1.340444 1.697775,-0.892567 1.859278,-1.006718 2.276619,-1.612956 0.247086,-0.358924 0.514188,-0.883818 0.593307,-1.166144 0.16657,-0.59438 0.394235,-0.766577 1.294251,-0.977638 0.846925,-0.198615 0.987731,-0.182937 1.451765,0.16224 0.387617,0.288341 1.064601,0.566338 1.898583,0.779695 0.422811,0.108177 1.377692,0.01087 4.509132,-0.459939 1.028796,-0.154691 1.83403,-0.426998 2.299719,-0.777602 0.459553,-0.34598 1.177016,-1.409616 1.318407,-1.955287 l 0.105535,-0.409015 0.88261,-0.0091 c 1.279685,-0.01382 2.001151,-0.334377 3.266338,-1.451771 1.424186,-1.2578 2.748917,-2.372838 3.066817,-2.581145 0.23486,-0.153929 0.36784,-0.151318 1.14251,0.02367 0.98978,0.223518 1.6199,0.148291 2.72134,-0.325537 0.59,-0.253806 0.89329,-0.55822 1.69644,-1.702214 0.18019,-0.25662 0.30498,-0.303479 0.80489,-0.303479 0.83143,0 1.79929,-0.357655 3.7641,-1.389804 1.51674,-0.796785 1.75389,-0.88646 2.1821,-0.829054 1.17606,0.15775 4.28188,-0.649348 5.27623,-1.370905 1.16275,-0.843746 2.47803,-2.030586 2.93241,-2.645734 0.91707,-1.241524 1.02333,-1.522518 1.02333,-2.713464 0,-1.006667 -0.0276,-1.121854 -0.5261,-2.197337 -0.68202,-1.471371 -0.77083,-2.055022 -0.41742,-2.749167 0.43075,-0.846001 1.37447,-2.185156 1.75577,-2.491358 0.19473,-0.156378 0.77384,-0.512397 1.2869,-0.791257 2.08904,-1.135501 2.89646,-2.065142 3.42281,-3.942073 0.42826,-1.527212 0.70805,-1.967521 1.76626,-2.778043 0.49395,-0.37833 1.09877,-0.937332 1.34361,-1.242275 0.50821,-0.632929 1.39003,-1.458711 1.77047,-1.657579 0.19847,-0.103778 0.47101,-0.09063 1.18346,0.05669 1.84969,0.382517 3.24888,0.01046 4.53959,-1.2070897 1.52803,-1.4414689 1.87207,-2.6885398 1.26274,-4.576871 -0.17643,-0.5468096 -0.34313,-1.064205 -0.37016,-1.1498567 -0.027,-0.085652 0.28411,-0.4900539 0.6915,-0.8983577 1.05325,-1.0555992 1.27483,-1.5585872 1.27483,-2.89461198 v -1.07424344 l -0.59017,-0.88261928 c -0.32462,-0.4853497 -0.76778,-1.0041675 -0.98499,-1.1530064 -0.77678,-0.5322702 -1.2722,-1.6064425 -1.2722,-2.7580875 v -0.709873 l 0.86003,-0.8915401 c 0.74785,-0.7753971 1.03304,-0.9751495 2.18421,-1.5289393 1.37905,-0.6634096 1.73039,-0.9718169 2.27977,-2.0014969 0.38656,-0.724606 0.36157,-2.302061 -0.0494,-3.096742 -0.2073,-0.400897 -0.33761,-0.912653 -0.41584,-1.635013 -0.0627,-0.578449 -0.22045,-1.292712 -0.35074,-1.58723 -0.13027,-0.294518 -0.23679,-0.63807 -0.23679,-0.7629 0,-0.356933 -0.4085,-1.069691 -1.26118,-2.199959 -0.43282,-0.573724 -0.8546,-1.234106 -0.93721,-1.468038 -0.19349,-0.547968 -0.41216,-1.957767 -0.41216,-2.658851 0,-0.582554 -0.14827,-0.937485 -0.8028,-1.923263 l -0.4106,-0.618511 0.084,-1.399264 c 0.0549,-0.915822 0.0338,-1.740408 -0.0609,-2.386881 -0.1329,-0.907499 -0.20575,-1.081147 -0.89888,-2.135904 -0.41492,-0.631405 -0.75558,-1.245006 -0.75659,-1.363555 -0.003,-0.360329 0.59923,-1.030122 1.20026,-1.33468 0.31239,-0.158298 0.81346,-0.443717 1.11311,-0.633735 0.29963,-0.190031 0.98233,-0.52112 1.51739,-0.736122 1.12242,-0.451017 1.99316,-1.219729 2.44621,-2.159531 0.25267,-0.524154 0.27666,-0.738449 0.29088,-2.610552 0.0174,-2.290499 -0.007,-2.380867 -1.00757,-3.705808 -0.52345,-0.693321 -1.20856,-1.094543 -2.30917,-1.351479 -0.6642,-0.155059 -1.27699,-0.05098 -3.01484,0.511925 -0.61929,0.200593 -0.95213,0.254584 -1.09631,0.177466 -0.22449,-0.120147 -1.11915,-1.409836 -1.74317,-2.512891 -0.21428,-0.378789 -0.69238,-1.099715 -1.06218,-1.60193 -0.3698,-0.502215 -0.84478,-1.260178 -1.05587,-1.684361 -0.43404,-0.872165 -1.98536,-2.868815 -2.71294,-3.491589 -0.5537,-0.473944 -0.69756,-0.882504 -1.16561,-3.319367 -0.26156,-1.361711 -0.34028,-1.581532 -0.83588,-2.327024 -0.30096,-0.452711 -0.69078,-0.92171 -0.86634,-1.042751 -0.34586,-0.238478 -1.24258,-0.600042 -2.27713,-0.917788 -0.35894,-0.11024 -1.44863,-0.607883 -2.42207,-1.10628 -1.62755,-0.833291 -1.81382,-0.962649 -2.3139,-1.608232 -1.35165,-1.74493 -1.80728,-2.20149 -2.54597,-2.550171 -0.39977,-0.1887 -1.04707,-0.409557 -1.43863,-0.490922 -0.40675,-0.08452 -0.96633,-0.316085 -1.30528,-0.540275 -0.3263,-0.215816 -1.02051,-0.535195 -1.54259,-0.709343 -0.89438,-0.298346 -1.00078,-0.308921 -1.83926,-0.182718 -1.16196,0.174893 -2.2875,0.16539 -3.02482,-0.02573 -0.51949,-0.134658 -0.67645,-0.257084 -1.27062,-0.98972 -0.74387,-0.917218 -1.12212,-1.134058 -2.87885,-1.654433 -1.4316,-0.424069 -2.09779,-0.460144 -3.19755,-0.172218 -1.5341,0.401637 -2.24551,0.947042 -2.918237,2.237766 -0.236452,0.45372 -0.267928,0.703572 -0.288249,2.293421 -0.02489,1.946286 -0.01595,1.922371 -0.762372,2.0624 -0.73695,0.138252 -1.483492,0.570386 -2.191566,1.267995 -0.993936,0.97922 -1.624671,1.249616 -3.270535,1.402411 -1.674792,0.155481 -2.5511,0.06415 -3.67273,-0.382762 -0.594533,-0.236893 -1.330624,-0.404554 -2.313373,-0.526625 -0.975091,-0.12112 -1.825849,-0.313588 -2.628404,-0.595409 -2.29944,-0.807451 -2.444443,-0.833368 -3.347721,-0.596457 -1.129679,0.296292 -1.712351,0.677296 -2.231992,1.460165 -0.389494,0.586802 -0.459046,0.802435 -0.557604,1.725316 -0.09272,0.86826 -0.07948,1.152542 0.07561,1.607706 0.103616,0.304124 0.189272,0.877531 0.190592,1.273772 0.0049,1.482569 0.171115,2.116619 0.818028,3.125101 0.498089,0.776479 0.603808,1.035146 0.603808,1.478017 0,0.295193 0.186909,1.153016 0.415314,1.90646 0.228408,0.753443 0.415317,1.397013 0.415317,1.430237 0,0.245849 -0.44289,0.433692 -1.023325,0.433692 -0.79123,0 -2.17756,0.301114 -2.866249,0.62271 -0.52238,0.24393 -1.208638,0.944985 -1.538924,1.572 -0.294283,0.558669 -0.396268,2.316883 -0.19532,3.367148 0.0935,0.488643 0.128881,0.926707 0.07876,0.973446 -0.05012,0.04676 -0.518052,0.20026 -1.040125,0.340758 -1.205579,0.324449 -1.689559,0.645427 -2.255092,1.497444 -0.375509,0.565717 -0.466023,0.821719 -0.527675,1.494293 -0.0479,0.522506 -0.145712,0.882877 -0.274603,1.011771 -0.1101,0.11013 -0.221758,0.176818 -0.248347,0.148067 -0.239335,-0.258744 -1.024251,-1.616006 -1.080029,-1.867606 -0.03909,-0.176293 -0.339519,-0.685245 -0.667339,-1.130959 -0.695227,-0.945226 -1.442286,-1.366834 -2.610552,-1.472767 -0.389585,-0.03533 -0.72922,-0.09767 -0.754497,-0.138612 -0.02527,-0.04091 0.05449,-0.553747 0.17694,-1.139886 0.284577,-1.362198 0.301632,-2.897776 0.03833,-3.414928 -0.384096,-0.754417 -1.028501,-1.52024 -1.468566,-1.744744 -0.593875,-0.302969 -2.082535,-0.71102 -2.606877,-0.714069 -0.229718,-0.0013 -0.644637,-0.105649 -0.921987,-0.231545 -0.642177,-0.291491 -0.650879,-0.504172 -0.08926,-2.24144 0.283332,-0.876432 0.415317,-1.507711 0.415317,-1.987318 0,-0.646639 0.04211,-0.759715 0.525573,-1.406085 0.597491,-0.798816 0.779703,-1.378187 0.779703,-2.481389 0,-0.423651 0.08309,-1.160764 0.184818,-1.638158 0.10173,-0.477394 0.195441,-1.321827 0.207918,-1.876531 0.02256,-1.003274 0.02014,-1.012395 -0.468343,-1.720591 -0.665304,-0.964531 -0.9512,-1.20664 -1.773097,-1.502168 -0.976884,-0.351257 -1.546582,-0.311261 -3.253213,0.229448 -1.130192,0.358071 -1.762151,0.487333 -2.655706,0.542902 -0.929004,0.05777 -1.459177,0.170814 -2.55122,0.544476 -2.319239,0.793569 -3.683425,0.905656 -5.199049,0.426867 -1.062986,-0.335801 -2.058642,-0.901776 -2.871502,-1.631856 -0.311195,-0.279504 -0.849817,-0.610109 -1.197116,-0.734549 -0.99821,-0.357645 -1.070836,-0.477523 -0.988669,-1.641832 0.07887,-1.117537 0.02056,-1.290369 -0.860033,-2.534417 -0.409398,-0.578366 -0.639405,-0.778768 -1.141985,-0.996022 -0.816392,-0.35291 -1.261945,-0.501282 -1.837152,-0.501949 z m 0.100282,0.26515 0.909387,0.305054 c 1.079723,0.362153 1.179097,0.442492 1.950038,1.581978 l 0.594358,0.87946 -0.07351,1.0354 c -0.08995,1.267145 0.04218,1.493801 1.097881,1.888606 0.437241,0.163517 0.994941,0.513699 1.457016,0.914638 0.842678,0.731184 2.035245,1.348118 3.18128,1.64551 1.351051,0.350592 3.616382,0.05812 5.414845,-0.698843 0.529598,-0.222905 1.068688,-0.327619 2.126457,-0.412691 1.102812,-0.0887 1.719717,-0.212727 2.781716,-0.559703 1.595589,-0.521312 2.063058,-0.546061 3.019565,-0.160667 0.626184,0.252301 0.778291,0.385262 1.34518,1.174538 l 0.638986,0.889962 -0.07875,0.965568 c -0.04357,0.531257 -0.129988,1.172083 -0.191644,1.423936 -0.06165,0.251852 -0.160015,1.090777 -0.218944,1.864455 -0.103665,1.360953 -0.122058,1.428223 -0.560755,2.063973 -0.713176,1.033527 -0.746369,1.116232 -0.748197,1.855003 -0.0011,0.464558 -0.123086,1.049809 -0.363861,1.751045 -0.198917,0.57935 -0.392612,1.315299 -0.430541,1.635532 -0.06071,0.51257 -0.03344,0.61763 0.227874,0.878934 0.302391,0.302392 0.979136,0.550916 1.513721,0.554977 0.475394,0.0039 1.728768,0.329339 2.298146,0.596985 0.399824,0.187936 0.654416,0.441848 1.071102,1.068478 0.534907,0.804424 0.546576,0.842549 0.546576,1.765219 0,0.80103 -0.125877,1.689116 -0.416889,2.943959 -0.09208,0.397083 0.316069,0.743471 0.876311,0.743471 0.451213,0 1.231342,0.219601 1.771518,0.498799 0.360483,0.18633 1.299005,1.511357 1.518971,2.144305 0.25046,0.720703 1.010778,1.799881 1.296876,1.840828 0.448243,0.06417 0.793262,-0.47362 0.875784,-1.365657 0.121905,-1.317736 0.991411,-2.36681 2.242491,-2.705584 0.370902,-0.100435 0.871275,-0.23561 1.112057,-0.30033 0.24642,-0.06622 0.467733,-0.211832 0.506148,-0.332882 0.03754,-0.118267 -0.0084,-0.61453 -0.101857,-1.103132 -0.109464,-0.571968 -0.146123,-1.237174 -0.102912,-1.867603 0.05969,-0.870864 0.116417,-1.054685 0.509826,-1.663361 0.243281,-0.376412 0.625591,-0.797772 0.84953,-0.936166 0.562803,-0.347839 1.639803,-0.619117 2.766492,-0.696741 1.028724,-0.07092 1.442506,-0.24887 1.544698,-0.663139 0.03602,-0.146016 -0.100242,-0.799169 -0.302954,-1.451765 -0.202711,-0.652591 -0.410131,-1.564204 -0.460994,-2.025646 -0.08032,-0.728655 -0.172788,-0.964028 -0.703567,-1.791471 l -0.61116,-0.952967 -0.06983,-1.2932 c -0.03842,-0.711292 -0.14829,-1.542063 -0.243624,-1.846078 -0.267603,-0.853342 -0.113033,-2.257316 0.325005,-2.954459 0.443786,-0.706291 0.764479,-0.997507 1.413435,-1.284272 1.073595,-0.474411 1.565739,-0.452687 3.149255,0.139663 0.783424,0.293057 1.850444,0.595517 2.370603,0.672065 0.520149,0.07655 1.319425,0.194014 1.776246,0.260949 0.456808,0.06694 1.120612,0.251914 1.475392,0.411115 1.16536,0.522934 2.844874,0.612671 4.931804,0.263576 0.854242,-0.142894 1.846461,-0.682079 2.264539,-1.230193 0.411687,-0.539756 1.2635,-1.062937 2.125402,-1.305275 0.39156,-0.110093 0.789937,-0.27416 0.885241,-0.364913 0.135793,-0.129249 0.177217,-0.564134 0.191644,-2.006742 l 0.01839,-1.841877 0.543954,-0.818029 c 0.469622,-0.70623 0.64629,-0.867321 1.291625,-1.178212 0.41114,-0.198066 1.14818,-0.424471 1.63763,-0.503001 0.85558,-0.137281 0.94131,-0.128431 2.22253,0.229449 1.95727,0.546722 2.29042,0.733622 2.96916,1.663883 0.4494,0.615935 0.68472,0.828953 1.04591,0.946669 0.73566,0.239757 2.30183,0.30481 3.36347,0.139663 0.90287,-0.140454 1.01127,-0.132867 1.80985,0.123909 0.46711,0.150199 1.11262,0.450424 1.43497,0.667342 0.33767,0.227246 0.92073,0.47173 1.3751,0.57703 1.66926,0.386843 2.23748,0.789428 3.51311,2.486639 0.34335,0.456812 0.75205,0.946412 0.90782,1.087906 0.47454,0.431057 3.66712,2.019949 4.61361,2.296044 1.67343,0.488148 2.03933,0.724784 2.70297,1.749995 0.54677,0.84464 0.61372,1.030186 0.84848,2.341199 0.43366,2.421865 0.48321,2.537019 1.6182,3.769339 1.02213,1.109775 2.32195,2.885819 2.47772,3.385526 0.0468,0.150311 0.39158,0.70109 0.76605,1.223891 0.37447,0.522802 1.0506,1.563495 1.50268,2.312323 1.09451,1.812942 1.33083,2.063975 1.94007,2.063975 0.26321,0 0.81881,-0.12815 1.23439,-0.284579 0.4156,-0.156428 1.05995,-0.347445 1.43235,-0.424764 0.60036,-0.124639 0.7704,-0.112209 1.50112,0.109734 0.98288,0.298542 1.44536,0.675734 2.14587,1.751043 l 0.51823,0.795451 -0.0157,2.047173 c -0.0152,2.00867 -0.0215,2.058051 -0.34443,2.615802 -0.5035,0.869859 -1.11435,1.383873 -2.14956,1.808798 -0.51225,0.21027 -1.30525,0.604269 -1.76207,0.875786 -0.45681,0.271514 -0.9684,0.554416 -1.13725,0.628486 -0.47525,0.20856 -1.17612,1.134147 -1.17612,1.553099 0,0.243015 0.24396,0.719595 0.76132,1.487994 0.67737,1.006027 0.77566,1.22709 0.89207,2.003591 0.0719,0.479965 0.11618,1.59357 0.0986,2.474564 l -0.032,1.601399 0.54447,0.833788 c 0.50919,0.780295 0.54829,0.898785 0.61484,1.84135 0.1071,1.517682 0.39697,2.634141 0.82065,3.162378 0.75825,0.94539 1.75847,2.529815 1.7605,2.790123 0.001,0.149337 0.10972,0.507286 0.24047,0.795454 0.13072,0.288167 0.2855,0.989963 0.34443,1.559389 0.0738,0.712769 0.20259,1.223022 0.41269,1.637635 0.25488,0.503059 0.30506,0.763936 0.30506,1.586701 0,0.866058 -0.0381,1.042086 -0.31346,1.457543 -0.57556,0.8683029 -0.92478,1.1521424 -2.1191,1.7205935 -1.01762,0.4843539 -1.32182,0.7018666 -2.13591,1.529996 l -0.94876,0.9655683 v 1.0354004 c 0,1.2794114 0.27721,1.9234555 1.21391,2.8163672 0.35,0.3336252 0.84706,0.9235249 1.10471,1.3110507 0.45348,0.68211495 0.46887,0.73688939 0.46887,1.71481273 2.6e-4,0.95729787 -0.0209,1.04223837 -0.41269,1.62398937 -0.22736,0.3376182 -0.65458,0.815307 -0.9493,1.0616446 -0.48157,0.402553 -0.53607,0.4991576 -0.53607,0.954016 0,0.2783529 0.13797,0.8674906 0.30663,1.309486 0.25367,0.6648525 0.29811,0.947869 0.25674,1.6391994 -0.0422,0.7055448 -0.11439,0.9364996 -0.46571,1.4832686 -0.81415,1.2671376 -1.85611,2.0058662 -3.23799,2.2955272 -0.6924,0.145192 -0.88278,0.138679 -1.86866,-0.0635 -0.82305,-0.168763 -1.17281,-0.194621 -1.39663,-0.101857 -0.30688,0.127116 -1.51888,1.246156 -2.25562,2.082343 -0.2284,0.259241 -0.74764,0.723386 -1.15353,1.031204 -0.96767,0.733892 -1.29887,1.261661 -1.70484,2.718188 -0.55043,1.974745 -1.24487,2.75762 -3.54934,4.00088 -0.48944,0.264048 -1.11248,0.709386 -1.38456,0.98972 -0.5721,0.589473 -1.64875,2.318642 -1.76049,2.827401 -0.11705,0.532921 0.15869,1.619773 0.66787,2.633654 0.43032,0.856812 0.46046,0.984822 0.46046,1.958437 v 1.042219 l -0.64738,0.966625 c -0.3559,0.531558 -0.92313,1.198098 -1.26065,1.481693 -0.33751,0.283576 -0.87576,0.742803 -1.19607,1.02017 -0.59585,0.515963 -1.42736,0.98781 -2.28606,1.296877 -0.76254,0.274452 -3.01392,0.629099 -3.55303,0.559703 -0.40555,-0.05222 -0.65348,0.01707 -1.43916,0.402716 -0.52207,0.256285 -1.22477,0.629291 -1.5615,0.829054 -0.91529,0.542949 -2.2149,0.975546 -2.93188,0.975546 -0.72523,0 -0.85488,0.08463 -1.40242,0.914634 -0.46811,0.709629 -0.79224,0.985808 -1.46068,1.245415 -0.84214,0.327062 -1.41314,0.363415 -2.37166,0.15017 l -0.90045,-0.200575 -0.49092,0.339182 c -0.2701,0.186585 -1.189377,0.966229 -2.04245,1.732147 -2.000004,1.795658 -2.6664,2.150326 -4.063367,2.163737 -1.046252,0.01016 -1.219303,0.09337 -1.223367,0.588051 -0.003,0.345563 -0.893054,1.633814 -1.334145,1.930608 -0.477287,0.321138 -1.474241,0.587725 -2.813752,0.752404 -0.55827,0.06868 -1.516283,0.199641 -2.128555,0.290881 -1.0779,0.160615 -1.140777,0.156937 -1.990465,-0.112892 -0.482637,-0.153258 -1.059422,-0.417509 -1.281649,-0.587004 -0.471359,-0.359534 -0.861434,-0.383898 -1.885983,-0.119709 -0.885617,0.228364 -1.081169,0.391346 -1.317875,1.101026 -0.100832,0.302301 -0.385169,0.81674 -0.631637,1.143039 -0.383552,0.507784 -0.690274,0.721609 -2.129079,1.483259 -1.782985,0.943886 -2.088406,1.163573 -2.366404,1.701167 -0.242505,0.468951 -0.632161,2.555805 -0.632161,3.386576 0,0.599034 -0.06029,0.782489 -0.459945,1.400838 -0.527298,0.815845 -0.984103,1.13927 -1.97419,1.39716 v -5.39e-4 c -0.815267,0.212809 -0.963149,0.212483 -1.83715,-0.0071 -1.114931,-0.279786 -3.221488,-0.640559 -3.739935,-0.640559 -0.625773,0 -1.801319,-0.399932 -2.156381,-0.733496 -0.149292,-0.140254 -0.491766,-0.593304 -0.761326,-1.007053 l -0.490395,-0.752394 0.07875,-1.512145 c 0.0433,-0.831736 0.08423,-1.6583 0.09083,-1.836625 0.01543,-0.415771 -0.515474,-1.218855 -1.005998,-1.522121 -0.20948,-0.129504 -0.969037,-0.422397 -1.688038,-0.650537 -0.719002,-0.228151 -1.474228,-0.516075 -1.678063,-0.640041 -0.203831,-0.123956 -0.629576,-0.602346 -0.946665,-1.063219 -0.600543,-0.872886 -0.815337,-1.01573 -1.704839,-1.133591 -0.294112,-0.03901 -0.820121,-0.202861 -1.168761,-0.36438 -0.76377,-0.353865 -1.036986,-0.361587 -2.014618,-0.05517 -0.948429,0.297292 -1.360768,0.295941 -2.75389,-0.01107 -0.729457,-0.160777 -1.370488,-0.228933 -1.833479,-0.194794 -0.814991,0.06015 -1.969798,-0.236533 -2.478763,-0.636891 -0.275756,-0.216903 -0.927632,-1.113788 -1.331529,-1.831372 -0.115499,-0.205188 -0.263757,-0.234379 -1.186614,-0.240475 -1.774579,-0.01087 -2.390523,-0.375131 -4.9486,-2.926628 -0.967032,-0.964552 -1.830944,-1.754204 -1.92011,-1.754204 -0.08917,0 -0.548695,0.08179 -1.021224,0.181149 -0.821672,0.172797 -0.892529,0.169383 -1.620829,-0.07295 -0.499791,-0.166315 -0.963117,-0.432262 -1.347807,-0.773924 -0.652148,-0.579201 -0.629929,-0.573745 -1.565174,-0.385911 -0.614143,0.123337 -0.744245,0.108645 -1.545749,-0.175896 -0.481346,-0.170866 -1.235664,-0.521581 -1.676487,-0.779176 -0.440824,-0.257616 -1.10246,-0.588031 -1.470141,-0.734014 -0.367679,-0.145994 -1.068908,-0.46187 -1.55835,-0.701999 -0.489445,-0.24014 -1.263776,-0.528613 -1.720592,-0.641088 -1.04405,-0.257067 -3.208902,-1.091963 -3.672727,-1.416586 -0.670908,-0.46953 -2.510147,-2.420611 -3.021142,-3.204909 l -0.514025,-0.789144 0.0546,-0.977649 c 0.04683,-0.835038 0.116909,-1.092837 0.478846,-1.76784 0.603192,-1.124974 0.762689,-1.932843 0.58543,-2.966537 C 17.603,22.434901 17.346228,21.973347 16.419485,21.061608 15.813262,20.465205 15.3163,20.131164 14.12764,19.519531 12.627648,18.7477 12.602635,18.727776 11.996459,17.848296 11.478342,17.096562 11.351978,16.802258 11.182632,15.952334 10.907808,14.573027 10.666208,14.160577 9.6689102,13.366983 9.199051,12.993092 8.2530769,12.114537 7.5666082,11.414845 5.9666938,9.7841496 5.7843602,9.7028262 4.333872,9.9693829 3.1067336,10.194902 2.5697501,10.125029 1.4460938,9.5934501 0.9279527,9.3483317 0.65818682,9.1031625 0.10616505,8.3763826 -0.27399859,7.8758534 -0.65337877,7.338056 -0.73654112,7.1813733 -0.96285581,6.754974 -0.79036963,5.1426588 -0.42571128,4.2762656 -0.06772361,3.4257327 -0.12622822,3.0916707 -0.69296176,2.7572936 -0.92974389,2.6175888 -1.3648763,2.135145 -1.6947584,1.6462799 l -0.5833312,-0.86422906 0.074558,-0.98866283 c 0.062954,-0.83716191 0.1327922,-1.08096961 0.4557437,-1.58933241 0.2097645,-0.330191 0.6073819,-0.7793089 0.88366024,-0.9981221 C -0.49979231,-3.0826306 -0.2484441,-3.4390454 0.05103521,-4.09199 0.55856796,-5.1985535 0.65773509,-5.9717967 0.40439413,-6.8432599 0.10426568,-7.875663 -0.4359139,-8.3972953 -2.0407662,-9.2017813 -3.4515245,-9.908972 -3.783989,-10.184094 -4.5253054,-11.261558 c -0.336965,-0.489759 -0.3691106,-0.618918 -0.3691106,-1.477488 0,-0.839112 0.043955,-1.024031 0.4042891,-1.715341 0.3179464,-0.609986 0.4202278,-0.973818 0.4809462,-1.707995 0.1439447,-1.74062 0.7041901,-2.939835 2.0014924,-4.283359 l 0.830105,-0.859504 0.090834,-0.979742 c 0.25574407,-2.763473 0.32604849,-3.125029 0.74872202,-3.84495 0.3869283,-0.659031 0.41312168,-0.776058 0.51507467,-2.296046 0.0658878,-0.982323 0.20615042,-1.94616 0.36280977,-2.491889 0.14050024,-0.489446 0.2819143,-1.025794 0.31398036,-1.191867 0.0320661,-0.16606 0.27344738,-0.63508 0.53660148,-1.042224 0.79066,-1.223306 0.6828617,-1.426192 -1.07425326,-2.021445 -1.32314254,-0.447938 -3.29453414,-1.451309 -3.68110814,-1.873065 -0.1703146,-0.185813 -0.5250277,-0.660763 -0.7886257,-1.055351 l -0.4793711,-0.717219 -0.030978,-1.299502 c -0.055841,-2.369765 0.1594441,-3.205705 1.1010309,-4.278111 0.4558786,-0.519224 1.0520973,-0.82868 2.0340457,-1.0564 0.72485348,-0.168105 0.82126817,-0.162594 2.07184962,0.119711 1.60976418,0.363426 1.82805518,0.366028 2.20258688,0.02887 0.1631153,-0.146838 0.8656241,-1.174572 1.5609749,-2.283969 0.6953509,-1.109409 1.4471526,-2.207619 1.6712361,-2.44096 0.3049222,-0.317532 0.43215,-0.578319 0.504573,-1.03645 0.1547136,-0.978717 0.7892396,-1.813905 1.9474115,-2.56277 0.6332945,-0.409485 1.2158025,-0.91559 1.6659856,-1.447566 l 0.692018,-0.818029 -0.07403,-0.962942 c -0.129667,-1.684743 0.304575,-3.040126 1.257496,-3.923178 0.410314,-0.380231 1.705979,-0.928073 3.028493,-1.280074 0.638232,-0.16987 1.399122,-0.448396 1.691186,-0.61956 0.292066,-0.171162 1.447429,-1.179098 2.566972,-2.239338 1.119544,-1.060244 2.243401,-2.033305 2.497666,-2.162686 0.254264,-0.12938 0.835861,-0.347234 1.292674,-0.484096 0.456813,-0.136862 1.128026,-0.428839 1.491145,-0.648962 1.338659,-0.811505 2.681283,-1.08221 4.853565,-0.978169 0.882886,0.04229 1.668172,0.03421 1.745269,-0.01785 0.0771,-0.05206 0.404306,-0.499303 0.727195,-0.993918 0.32289,-0.494618 0.750159,-1.015417 0.949292,-1.157212 0.594624,-0.423409 1.865264,-0.84093 3.309918,-1.087906 z" />
    </g>
    <g
       id="g1113"
       transform="translate(-14.69968,-16.365783)">
      <path
         style="color:#000000;fill:#d35f5f;stroke-width:1;-inkscape-stroke:none"
         d="m 62.866361,89.081765 c -2.166688,2.048525 -4.329367,4.084629 -5.812177,6.613701 -0.973741,1.660767 -1.631312,3.529647 -1.684898,5.439954 -0.05352,1.90808 0.532716,3.86443 1.788784,5.28379 1.282541,1.44928 3.203482,2.27073 5.146201,2.43619 1.94512,0.16566 3.916791,-0.28469 5.723423,-1.06363 2.299544,-0.99145 4.329297,-2.48987 6.361199,-4.01308 -0.03251,-0.17109 -0.06773,-0.34179 -0.108013,-0.51116 -0.729055,-3.0646 -2.658511,-5.731225 -4.854488,-8.032354 -2.061654,-2.160333 -4.386369,-4.074758 -6.560029,-6.153411 z"
         id="path2694" />
      <path
         style="color:#000000;fill:#87cdde;stroke-width:1;-inkscape-stroke:none"
         d="m 63.106471,26.626317 c -0.28237,0.203989 -0.562175,0.411868 -0.835915,0.629514 -2.468843,1.96297 -4.527048,4.478407 -5.749566,7.376678 -1.222076,2.89722 -1.580206,6.189021 -0.798076,9.226003 0.586166,2.276092 1.789579,4.365724 3.24527,6.230478 1.45602,1.865184 3.165032,3.525012 4.883387,5.174409 1.07749,1.034254 2.156219,2.075817 3.188166,3.163395 2.183402,-2.280963 4.151303,-4.699715 5.296179,-7.589266 1.009958,-2.549041 1.316954,-5.363988 0.996218,-8.092188 -0.320791,-2.728631 -1.258838,-5.373274 -2.626763,-7.761955 -1.884477,-3.290692 -4.552062,-6.058261 -7.5989,-8.357068 z"
         id="path2686" />
      <path
         style="color:#000000;fill:#ffcc00;stroke-width:1;-inkscape-stroke:none"
         d="m 63.106471,26.626317 c 3.046838,2.298807 5.714423,5.066376 7.5989,8.357068 1.367925,2.388681 2.305972,5.033324 2.626763,7.761955 0.320736,2.7282 0.01374,5.543147 -0.996218,8.092188 -1.144876,2.889551 -3.112777,5.308303 -5.296179,7.589266 0.613805,0.646899 1.21535,1.306045 1.778462,2.000688 1.510131,1.862852 2.793851,3.953496 3.481255,6.266944 1.089561,3.666909 0.592074,7.675085 -0.878569,11.188852 -1.469872,3.511904 -3.855302,6.566006 -6.53182,9.249396 -0.660118,0.661817 -1.34213,1.305631 -2.022704,1.949091 2.17366,2.078653 4.498375,3.993078 6.560028,6.153411 2.195978,2.301129 4.125433,4.967754 4.854489,8.032354 0.04029,0.16937 0.07549,0.34007 0.108012,0.51116 1.162438,-0.8714 2.325424,-1.7483 3.540419,-2.54968 5.261175,-3.470221 11.396717,-5.375242 16.579291,-8.841447 5.036893,-3.368756 9.05064,-8.14383 12.01651,-13.440645 2.96619,-5.297377 4.92268,-11.114856 6.33161,-17.03199 1.47888,-6.210818 2.36594,-12.648365 1.50533,-18.953558 -0.86025,-6.30264 -3.61443,-12.506572 -8.44857,-16.610938 -3.46885,-2.945175 -7.85761,-4.694034 -12.356379,-5.462679 -2.249869,-0.384382 -4.531888,-0.534223 -6.818026,-0.515307 -2.286129,0.01884 -4.577713,0.206356 -6.848981,0.493983 -5.944772,0.752849 -11.971228,2.283311 -16.783626,5.759888 z"
         id="path2643" />
      <path
         style="color:#000000;fill:#ff9955;stroke-width:1;-inkscape-stroke:none"
         d="m 41.874274,18.851294 c -0.847802,-0.0032 -1.695753,0.03238 -2.538699,0.109384 -2.247853,0.205335 -4.461761,0.703834 -6.560714,1.526662 -5.616872,2.201921 -10.195774,6.674613 -13.149638,11.950463 -2.954744,5.277417 -4.371807,11.322082 -4.791881,17.369793 -0.438376,6.311227 0.185345,12.720538 2.111455,18.74097 1.925991,6.020049 5.173612,11.645493 9.626418,16.123838 7.027443,7.067783 16.734184,11.036303 23.945648,18.051596 3.157526,3.07165 5.811496,6.69384 9.47024,9.03061 1.82842,1.16779 3.908457,1.99111 6.059167,2.11148 2.148093,0.12015 4.37614,-0.51154 5.967665,-1.93739 1.160555,-1.03975 1.954378,-2.47117 2.319232,-3.99382 0.324692,-1.35508 0.317344,-2.77987 0.05573,-4.15619 -2.031902,1.52321 -4.061655,3.02162 -6.361199,4.01307 -1.806632,0.77894 -3.778303,1.2293 -5.723423,1.06363 -1.942719,-0.16545 -3.86366,-0.9869 -5.146201,-2.43618 -1.256068,-1.41937 -1.842308,-3.37571 -1.788784,-5.2838 0.05359,-1.910301 0.711157,-3.779181 1.684898,-5.439948 1.48281,-2.529072 3.645489,-4.565176 5.812177,-6.613701 -0.750979,-0.71816 -1.484705,-1.455362 -2.182317,-2.22979 -1.358518,-1.508102 -2.582598,-3.160388 -3.479188,-4.992777 -0.896836,-1.832882 -1.459303,-3.854522 -1.4613,-5.905055 -0.0025,-2.598691 0.895273,-5.128947 2.218092,-7.346405 1.322252,-2.216514 3.05879,-4.146031 4.862746,-5.967666 1.39086,-1.404489 2.845113,-2.781823 4.215343,-4.213278 -1.031947,-1.087578 -2.110676,-2.129141 -3.188166,-3.163395 -1.718355,-1.649397 -3.427367,-3.309225 -4.883387,-5.174409 -1.455691,-1.864754 -2.659104,-3.954386 -3.24527,-6.230478 -0.78213,-3.036982 -0.424,-6.328783 0.798076,-9.226003 1.222518,-2.898271 3.280723,-5.413708 5.749566,-7.376678 0.27374,-0.217646 0.553545,-0.425524 0.835915,-0.629514 C 61.729528,25.587423 60.275314,24.64385 58.781053,23.791777 54.847791,21.548915 50.563118,19.868005 46.096502,19.184278 44.70091,18.970619 43.287286,18.856725 41.874278,18.85129 Z"
         id="path2636" />
      <path
         style="color:#000000;fill:#8dd35f;stroke-width:1;-inkscape-stroke:none"
         d="m 67.039737,58.426794 c 0.613805,0.646899 1.21535,1.306045 1.778462,2.000688 1.510131,1.862852 2.793851,3.953496 3.481255,6.266944 1.089561,3.666909 0.592074,7.675085 -0.878569,11.188852 -1.469872,3.511904 -3.855302,6.566006 -6.53182,9.249396 -0.660118,0.661817 -1.34213,1.305631 -2.022704,1.949091 -0.750979,-0.71816 -1.484705,-1.455362 -2.182317,-2.22979 -1.358518,-1.508102 -2.582597,-3.160388 -3.479188,-4.992777 -0.896836,-1.832882 -1.459303,-3.854522 -1.4613,-5.905055 -0.0025,-2.598691 0.895273,-5.128947 2.218092,-7.346405 1.322252,-2.216514 3.05879,-4.146031 4.862746,-5.967666 1.39086,-1.404489 2.845113,-2.781823 4.215343,-4.213278 z"
         id="path2738" />
    </g>
  </g>
</svg>
