<?xml version="1.0" standalone="no"?>
<!DOCTYPE svg PUBLIC "-//W3C//DTD SVG 20010904//EN"
 "http://www.w3.org/TR/2001/REC-SVG-20010904/DTD/svg10.dtd">
<svg version="1.0" xmlns="http://www.w3.org/2000/svg"
 width="900.000000pt" height="900.000000pt" viewBox="0 0 900.000000 900.000000"
 preserveAspectRatio="xMidYMid meet">
<metadata>
Created by potrace 1.14, written by Peter Selinger 2001-2017
</metadata>
<g transform="translate(0.000000,900.000000) scale(0.100000,-0.100000)"
fill="#000000" stroke="none">
<path d="M1379 8496 c-2 -2 -31 -6 -64 -9 -209 -20 -456 -112 -650 -243 -345
-231 -577 -592 -645 -1001 -22 -136 -20 -375 4 -512 54 -300 204 -580 430
-803 258 -256 608 -407 981 -425 105 -5 271 6 347 23 13 3 36 8 52 10 15 3 76
21 135 40 389 128 709 411 889 788 34 70 88 224 97 279 3 17 8 33 10 36 4 7
12 59 25 156 11 80 5 346 -9 415 -71 340 -199 585 -422 809 -188 190 -422 324
-679 391 -119 31 -243 47 -374 48 -68 1 -125 0 -127 -2z"/>
<path d="M3878 8495 c-2 -2 -21 -6 -43 -9 -194 -31 -389 -131 -533 -273 -199
-197 -302 -444 -300 -718 1 -86 7 -134 34 -263 2 -13 17 -53 31 -90 126 -317
384 -540 713 -617 96 -23 291 -28 390 -10 306 54 567 245 717 526 132 246 146
570 36 841 -119 295 -383 518 -703 593 -64 15 -331 31 -342 20z"/>
<path d="M8787 8494 c-1 -1 -45 -5 -97 -8 -164 -11 -218 -18 -355 -42 -16 -3
-43 -8 -60 -11 -208 -34 -584 -143 -742 -214 -24 -10 -46 -19 -51 -19 -5 0
-32 -11 -60 -25 -29 -14 -54 -25 -58 -25 -11 0 -282 -139 -364 -187 -151 -88
-165 -97 -170 -103 -3 -3 -45 -32 -95 -65 -481 -321 -914 -795 -1228 -1345
-27 -48 -157 -307 -157 -314 0 -3 -11 -29 -24 -58 -21 -46 -42 -100 -102 -258
-43 -115 -132 -444 -150 -555 -3 -21 -8 -47 -10 -59 -11 -51 -24 -132 -30
-194 -3 -37 -7 -69 -9 -72 -18 -29 -27 -616 -12 -768 17 -173 35 -301 68 -466
28 -143 87 -369 116 -446 3 -8 7 -19 9 -25 8 -32 77 -215 114 -300 274 -646
731 -1227 1285 -1636 66 -49 125 -92 130 -97 13 -9 65 -44 87 -57 9 -5 63 -38
120 -73 130 -80 421 -225 558 -280 229 -90 527 -179 735 -217 50 -10 97 -19
106 -20 9 -2 40 -6 70 -10 30 -4 56 -8 59 -10 3 -2 39 -6 80 -9 41 -4 89 -9
105 -11 17 -2 101 -7 188 -10 l157 -7 0 4002 0 4001 -106 -3 c-58 -1 -106 -3
-107 -4z"/>
<path d="M4380 6485 c-181 -50 -318 -187 -365 -365 -15 -58 -13 -200 4 -255
64 -205 236 -346 441 -361 238 -18 443 124 521 361 7 22 13 84 13 140 0 80 -5
112 -23 160 -62 165 -190 279 -361 323 -49 12 -180 10 -230 -3z"/>
<path d="M2319 5496 c-2 -2 -40 -7 -84 -11 -44 -3 -89 -8 -100 -11 -11 -2 -31
-6 -45 -8 -164 -27 -315 -69 -525 -147 -163 -60 -458 -234 -640 -377 -63 -49
-290 -272 -339 -332 -190 -233 -343 -500 -440 -765 -30 -83 -91 -303 -100
-360 -3 -22 -10 -67 -16 -100 -25 -148 -34 -474 -18 -640 78 -772 527 -1480
1193 -1882 273 -165 619 -293 885 -329 19 -2 46 -7 60 -9 140 -27 503 -27 710
0 27 3 168 30 210 40 14 3 36 8 49 11 34 7 283 90 328 109 200 85 434 222 602
353 239 185 516 515 648 771 18 36 37 69 41 75 16 21 91 202 125 302 42 121
88 301 102 399 2 17 7 47 11 68 3 20 8 49 10 65 9 53 12 458 4 517 -5 33 -11
85 -15 115 -34 290 -174 681 -340 950 -61 98 -174 255 -234 325 -43 49 -235
240 -276 275 -362 307 -832 518 -1280 576 -27 3 -59 8 -70 11 -24 5 -451 14
-456 9z"/>
</g>
</svg>
