<?xml version="1.0" standalone="no"?>
<!DOCTYPE svg PUBLIC "-//W3C//DTD SVG 20010904//EN"
 "http://www.w3.org/TR/2001/REC-SVG-20010904/DTD/svg10.dtd">
<svg version="1.0" xmlns="http://www.w3.org/2000/svg"
 width="1000.000000pt" height="1000.000000pt" viewBox="0 0 1000.000000 1000.000000"
 preserveAspectRatio="xMidYMid meet">
<metadata>
Created by potrace 1.14, written by Peter Selinger 2001-2017
</metadata>
<g transform="translate(0.000000,1000.000000) scale(0.100000,-0.100000)"
fill="#000000" stroke="none">
<path d="M2499 9746 c-2 -2 -38 -7 -79 -11 -41 -4 -82 -8 -90 -10 -8 -1 -35
-6 -60 -10 -216 -34 -471 -119 -670 -223 -92 -48 -286 -166 -300 -182 -3 -3
-20 -17 -39 -30 -167 -117 -399 -351 -563 -570 -56 -75 -221 -330 -213 -330 3
0 -8 -21 -23 -47 -107 -183 -255 -570 -317 -828 -21 -88 -65 -299 -70 -335 -3
-25 -8 -52 -10 -60 -12 -45 -38 -271 -53 -460 -14 -190 -7 -734 13 -900 8 -64
17 -135 20 -150 1 -8 5 -42 9 -75 9 -71 50 -288 76 -400 6 -27 13 -57 15 -66
10 -51 90 -313 124 -408 58 -161 102 -264 196 -456 109 -220 136 -268 261
-455 106 -160 185 -264 310 -410 61 -70 282 -289 354 -350 36 -30 71 -61 78
-68 8 -6 53 -42 100 -79 48 -37 89 -70 92 -73 26 -30 409 -292 915 -625 162
-107 409 -277 475 -327 174 -133 248 -191 320 -251 95 -80 398 -380 535 -531
166 -183 305 -317 474 -458 137 -115 391 -247 546 -284 225 -54 447 -40 622
40 235 108 391 326 431 601 9 63 8 226 -2 287 l-7 47 113 83 c285 211 451 311
823 493 127 62 253 123 280 135 87 39 483 239 525 265 22 14 42 25 45 25 2 0
49 27 102 61 54 33 107 66 117 72 23 14 15 8 131 94 654 484 1156 1220 1487
2183 113 329 249 843 304 1150 41 230 60 351 70 460 3 30 7 64 9 76 18 88 27
644 12 794 -18 192 -27 251 -74 480 -26 126 -113 384 -180 535 -316 707 -853
1144 -1643 1340 -117 29 -370 70 -500 81 -171 15 -714 8 -830 -10 -14 -3 -57
-7 -95 -10 -39 -4 -81 -8 -95 -11 -14 -2 -49 -6 -79 -9 -29 -3 -79 -10 -110
-15 -31 -6 -72 -12 -91 -15 -59 -9 -192 -34 -240 -45 -25 -5 -57 -12 -71 -15
-46 -8 -259 -66 -358 -98 -251 -79 -580 -238 -738 -356 -33 -24 -60 -24 -86 3
-21 21 -212 147 -317 209 -52 31 -102 61 -110 66 -50 31 -372 186 -460 220
-253 100 -501 174 -685 203 -16 3 -59 10 -95 16 -36 5 -90 13 -120 17 -61 7
-505 16 -511 10z"/>
</g>
</svg>
